<?xml version="1.0" encoding="UTF-8" standalone="no"?>
<svg xmlns:svg="http://www.w3.org/2000/svg" xmlns="http://www.w3.org/2000/svg" version="1.1" width="150" height="150"
   id="feed">
   <path
      d="m 20.823786,25.793218 2.330969,19.847883 a 79.964081,79.964081 0 0 1 88.744775,70.090859 l 19.87417,-2.33405 A 99.955096,99.955096 0 0 0 20.823786,25.793218 Z m 3.93023,33.46537 2.266133,19.295823 A 46.836105,46.836105 0 0 1 79.012513,119.59428 L 98.30833,117.32814 A 66.255952,66.255952 0 0 0 24.754016,59.258588 Z m 18.146667,36.966099 c -7.519114,0.883059 -12.901282,7.697633 -12.018226,15.216753 0.883054,7.51911 7.697634,12.90128 15.216746,12.01823 7.519114,-0.88306 12.901286,-7.69764 12.018228,-15.21675 -0.883056,-7.51911 -7.697633,-12.901293 -15.216748,-12.018233 z"
      id="icon" style="fill:#050505;fill-opacity:1;stroke:none;stroke-width:1" />
</svg>