<?xml version="1.0" encoding="UTF-8" standalone="no"?>
<svg
   xmlns:dc="http://purl.org/dc/elements/1.1/"
   xmlns:cc="http://creativecommons.org/ns#"
   xmlns:rdf="http://www.w3.org/1999/02/22-rdf-syntax-ns#"
   xmlns:svg="http://www.w3.org/2000/svg"
   xmlns="http://www.w3.org/2000/svg"
   version="1.1"
   width="150"
   height="150"
   id="twitter">
  <metadata
     id="metadata8">
    <rdf:RDF>
      <cc:Work
         rdf:about="">
        <dc:format>image/svg+xml</dc:format>
        <dc:type
           rdf:resource="http://purl.org/dc/dcmitype/StillImage" />
        <dc:title></dc:title>
      </cc:Work>
    </rdf:RDF>
  </metadata>
  <defs
     id="defs6">
    <linearGradient
       gradientTransform="matrix(1.8800526,0,0,1.8800526,17.505055,15.85608)"
       id="paint0_linear_89_8"
       x1="30.5"
       y1="0"
       x2="30.5"
       y2="65"
       gradientUnits="userSpaceOnUse">
      <stop
         stop-color="#6364FF"
         id="stop14" />
      <stop
         offset="1"
         stop-color="#563ACC"
         id="stop16" />
    </linearGradient>
  </defs>
  <path
     id="path10"
     d="M 73.751953 15.855469 C 53.658702 15.855469 49.34737 17.088926 47.058594 17.427734 C 33.870551 19.377262 21.826337 28.675207 18.904297 41.960938 C 17.498832 48.503896 17.350234 55.758226 17.611328 62.412109 C 17.983527 71.954315 18.055263 81.479132 18.921875 90.982422 C 19.520987 97.295075 20.565504 103.5576 22.048828 109.72266 C 24.826437 121.10883 36.069938 130.58345 47.085938 134.44922 C 58.880071 138.48061 71.563761 139.15062 83.716797 136.38281 C 85.053703 136.07185 86.374106 135.71 87.677734 135.29883 C 90.632989 134.36031 94.094397 133.31076 96.638672 131.4668 C 96.673642 131.4409 96.702546 131.40754 96.722656 131.36914 C 96.742956 131.33064 96.754349 131.28955 96.755859 131.24609 L 96.755859 122.03711 C 96.755107 121.99651 96.744613 121.95635 96.726562 121.91992 C 96.708512 121.88362 96.682351 121.85127 96.650391 121.82617 C 96.618431 121.80117 96.582634 121.78419 96.542969 121.77539 C 96.503489 121.76639 96.46136 121.76601 96.421875 121.77539 C 88.635449 123.63513 80.657796 124.56739 72.652344 124.55273 C 58.875506 124.55273 55.168336 118.01453 54.107422 115.29297 C 53.254442 112.94083 52.714441 110.48867 52.498047 107.99609 C 52.495747 107.95439 52.502661 107.91136 52.519531 107.87305 C 52.536451 107.83485 52.563183 107.80189 52.595703 107.77539 C 52.628223 107.74889 52.666046 107.7296 52.707031 107.7207 C 52.748011 107.7117 52.789465 107.71266 52.830078 107.72266 C 60.486593 109.56962 68.33641 110.50207 76.212891 110.5 C 78.107044 110.5 79.996284 110.49922 81.890625 110.44922 C 89.812227 110.227 98.161129 109.82268 105.95508 108.30078 C 106.14948 108.26188 106.34319 108.22773 106.50977 108.17773 C 118.80343 105.81713 130.50246 98.408657 131.69141 79.646484 C 131.73581 78.907811 131.84766 71.909075 131.84766 71.142578 C 131.85266 68.537577 132.6857 52.663305 131.72461 42.910156 C 129.95812 29.779906 118.51493 19.432818 104.94922 17.427734 C 102.66044 17.088926 93.989954 15.855469 73.902344 15.855469 L 73.751953 15.855469 z M 56.992188 35.851562 C 63.608469 35.851562 68.608261 38.394404 71.941406 43.476562 L 75.15625 48.876953 L 78.378906 43.476562 C 81.712051 38.394405 86.711217 35.851563 93.316406 35.851562 C 99.027254 35.851562 103.6324 37.861571 107.1543 41.777344 C 110.55419 45.69857 112.25181 50.993374 112.24805 57.662109 L 112.24805 90.283203 L 99.322266 90.283203 L 99.322266 58.623047 C 99.322266 51.957884 96.544277 48.558594 90.894531 48.558594 C 84.683778 48.558594 81.572266 52.580779 81.572266 60.523438 L 81.572266 77.851562 L 68.724609 77.851562 L 68.724609 60.523438 C 68.724609 52.580779 65.607238 48.558594 59.396484 48.558594 C 53.780203 48.558594 50.974609 51.957884 50.974609 58.623047 L 50.974609 90.283203 L 38.052734 90.283203 L 38.052734 57.662109 C 38.052734 50.996946 39.754744 45.70233 43.158203 41.777344 C 46.669201 37.861571 51.275888 35.851563 56.992188 35.851562 z "
     style="fill:#050505;stroke-width:0.99999994;fill-opacity:1" />
</svg>
