<?xml version="1.0" encoding="UTF-8" standalone="no"?>
<!-- Created with Inkscape (http://www.inkscape.org/) -->

<svg
   xmlns:dc="http://purl.org/dc/elements/1.1/"
   xmlns:cc="http://creativecommons.org/ns#"
   xmlns:rdf="http://www.w3.org/1999/02/22-rdf-syntax-ns#"
   xmlns:svg="http://www.w3.org/2000/svg"
   xmlns="http://www.w3.org/2000/svg"
   xmlns:sodipodi="http://sodipodi.sourceforge.net/DTD/sodipodi-0.dtd"
   xmlns:inkscape="http://www.inkscape.org/namespaces/inkscape"
   version="1.1"
   width="150"
   height="150"
   id="svg3296"
   inkscape:version="0.48.3.1 r9886"
   sodipodi:docname="uE012-feed.svg">
  <sodipodi:namedview
     pagecolor="#ffffff"
     bordercolor="#666666"
     borderopacity="1"
     objecttolerance="10"
     gridtolerance="10"
     guidetolerance="10"
     inkscape:pageopacity="0"
     inkscape:pageshadow="2"
     inkscape:window-width="640"
     inkscape:window-height="480"
     id="namedview6"
     showgrid="false"
     inkscape:zoom="1.5733333"
     inkscape:cx="75"
     inkscape:cy="76.004162"
     inkscape:window-x="0"
     inkscape:window-y="27"
     inkscape:window-maximized="0"
     inkscape:current-layer="svg3296" />
  <defs
     id="defs3298" />
  <metadata
     id="metadata3301">
    <rdf:RDF>
      <cc:Work
         rdf:about="">
        <dc:format>image/svg+xml</dc:format>
        <dc:type
           rdf:resource="http://purl.org/dc/dcmitype/StillImage" />
        <dc:title />
      </cc:Work>
    </rdf:RDF>
  </metadata>
  <path
     style="fill:#000000"
     d="M 17.625 32 L 17.625 55.59375 A 94.40678 94.40678 0 0 1 112.03125 150 L 135.65625 150 A 118.00847 118.00847 0 0 0 17.625 32 z M 17.625 71.78125 L 17.625 94.71875 A 55.2954 55.2954 0 0 1 72.9375 150 L 95.875 150 A 78.22276 78.22276 0 0 0 17.625 71.78125 z M 33.8125 117.625 C 24.874313 117.625 17.625 124.87432 17.625 133.8125 C 17.625 142.75068 24.874313 150 33.8125 150 C 42.750687 150 50 142.75068 50 133.8125 C 50 124.87432 42.750687 117.625 33.8125 117.625 z "
     id="circle26" />
</svg>
