<?xml version="1.0" encoding="utf-8"?>
<!-- Generator: Adobe Illustrator 17.0.0, SVG Export Plug-In . SVG Version: 6.00 Build 0)  -->
<!DOCTYPE svg PUBLIC "-//W3C//DTD SVG 1.1//EN" "http://www.w3.org/Graphics/SVG/1.1/DTD/svg11.dtd">
<svg version="1.1" id="Calque_1" xmlns="http://www.w3.org/2000/svg" xmlns:xlink="http://www.w3.org/1999/xlink" x="0px" y="0px"
	 width="216px" height="257px" viewBox="0 0 216 257" enable-background="new 0 0 216 257" xml:space="preserve">
 
<defs>
	<!-- Effect: JS dropshadow -->
	<filter height="130%" width="130%" id="drop-shadow">
		<feOffset in="SourceGraphic" result="offOut"  dx="0" dy="2"></feOffset>
		<feColorMatrix values=".3 0 0 0 0, 0 .2  0 0 0, 0 0 0 0, 0 0 0 1 0" in="offOut" type="matrix" result="matrixOut">
			</feColorMatrix>
		<feGaussianBlur in="matrixOut" result="blurOut" stdDeviation="2"></feGaussianBlur>
		<feBlend in="SourceGraphic" in2="blurOut" mode="normal" result="drop-shadow"></feBlend>
	</filter>
  <!-- Ombre portée -->
	<filter id="js-dropshadow" x="-100%" y="-100%" width="300%" height="300%">
    <feOffset result="out" in="SourceGraphic" dx="0" dy="2"/>
    <feColorMatrix result="out" in="out" type="matrix" values="0 0 0 0.5 0  0 0 0 0.4 0  0 0 0 0 0  0 0 0 0.6 0"/>
    <feGaussianBlur result="out" in="out" stdDeviation="1"/>
    <feBlend in="SourceGraphic" in2="out" mode="normal" result="js-dropshadow"/>
  </filter>
	<!-- Effect: blur -->
	<filter  id="blur">
		<feGaussianBlur  stdDeviation="3" in="SourceGraphic"></feGaussianBlur>
	</filter>
	<!-- Gradients -->
	<linearGradient id="glow_1_" gradientUnits="userSpaceOnUse" x1="90.0399" y1="177.6667" x2="90.0399" y2="76.8329">
		<stop  offset="0" style="stop-color:#FFFFFF;stop-opacity:0"/>
		<stop  offset="1" style="stop-color:#FFFFFF;stop-opacity:0.7"/>
	</linearGradient>
	<linearGradient id="stroke-light_1_" gradientUnits="userSpaceOnUse" x1="107.5" y1="191.2884" x2="107.5" y2="74.8856">
		<stop  offset="0" style="stop-color:#FFFFFF;stop-opacity:0"/>
		<stop  offset="1" style="stop-color:#FFFFFF"/>
	</linearGradient>
</defs>
<g id="logo">
	<path id="fond" fill-rule="evenodd" clip-rule="evenodd" fill="#DCDCCC" stroke="#ACAC9D" stroke-width="0.75" stroke-linecap="round" stroke-linejoin="round" stroke-miterlimit="10" d="
		M184.7,89.7c2.4-1.4,4.3-0.2,4.3,2.5l-0.3,83.4c0,2.8-2,6.1-4.4,7.5l-72.8,41.5c-2.4,1.4-6.3,1.3-8.7,0l-72.5-42
		c-2.4-1.4-4.3-4.8-4.3-7.5l0.3-83.3c0-2.8,2-3.9,4.3-2.5l72.5,42c2.4,1.4,6.3,1.4,8.7,0L184.7,89.7z"/>
	<g filter="url(#blur)">
		<path fill-rule="evenodd" clip-rule="evenodd" fill="#8A8A7B" d="M61.1,121.2c0-2.5,1.7-5.5,3.8-6.7l39-22.8
			c2.1-1.2,5.6-1.3,7.7-0.1l39.2,22.4c2.1,1.2,3.9,4.2,3.9,6.7l0.2,45.1c0,2.5-1.7,5.5-3.8,6.7l-39,22.8c-2.1,1.2-5.6,1.3-7.7,0.1
			L65.2,173c-2.1-1.2-3.9-4.2-3.9-6.6L61.1,121.2z"/>
	</g>
	<g id="hexa-jaune">
		<radialGradient id="SVGID_1_" cx="107.5036" cy="101.5996" r="84.1625" gradientUnits="userSpaceOnUse">
			<stop  offset="0" style="stop-color:#FAEB0F"/>
			<stop  offset="1" style="stop-color:#F1C309"/>
		</radialGradient>
		<path fill-rule="evenodd" clip-rule="evenodd" fill="url(#SVGID_1_)" d="M107.5,193.2c-1.7,0-3.4-0.4-4.6-1.1l-43.9-25
			c-2.6-1.5-4.7-5.1-4.7-8.1L54,108.5c0-3,2-6.6,4.6-8.1l43.6-25.5c1.3-0.7,3-1.1,4.7-1.1c1.7,0,3.4,0.4,4.6,1.1l43.9,25
			c2.6,1.5,4.7,5.1,4.7,8.1l0.3,50.5c0,3-2,6.6-4.6,8.1l-43.6,25.5C111,192.8,109.3,193.2,107.5,193.2z"/>
		<path fill="#C5A807" d="M107,74.5c1.5,0,3.1,0.3,4.3,1l43.9,25c2.4,1.4,4.3,4.7,4.3,7.4l0.3,50.5c0,2.8-1.9,6.1-4.3,7.5l-43.6,25.5
			c-1.2,0.7-2.8,1-4.4,1c-1.5,0-3.1-0.3-4.3-1l-43.9-25c-2.4-1.4-4.3-4.7-4.3-7.5l-0.3-50.5c0-2.8,1.9-6.1,4.3-7.5l43.6-25.5
			C103.8,74.9,105.4,74.5,107,74.5 M107,73C107,73,107,73,107,73c-1.9,0-3.7,0.4-5.1,1.3L58.3,99.7c-2.8,1.7-5,5.5-5,8.8l0.3,50.5
			c0,3.3,2.3,7.1,5.1,8.7l43.9,25c1.4,0.8,3.1,1.2,5,1.2c1.9,0,3.7-0.4,5.1-1.3l43.6-25.5c2.8-1.7,5-5.5,5-8.8L161,108
			c0-3.3-2.3-7.1-5.1-8.7l-43.9-25C110.6,73.4,108.8,73,107,73L107,73z"/>
	</g>
 
	<path id="glow" opacity="0.7" fill-rule="evenodd" clip-rule="evenodd" fill="url(#glow_1_)" d="M78.2,177.5
		c8-30.9,25.3-69.3,47.3-94.3l-14.3-7.7c-2.4-1.4-6.3-1.3-8.7,0l-43.7,25.5c-2.4,1.4-4.3,4.8-4.3,7.5l0.3,50.6c0,2.8,2,6.1,4.4,7.5
		L78.2,177.5z"/>
 
	<path id="stroke-light" fill-rule="evenodd" clip-rule="evenodd" fill="url(#stroke-light_1_)" d="M55,108.5l0.3,50.5
		c0,2.8,2,6.1,4.3,7.4l43.9,25c2.4,1.4,6.3,1.3,8.6,0l43.6-25.5c2.4-1.4,4.3-4.7,4.3-7.5l-0.3-50.5c0-2.8-2-6.1-4.3-7.5l-43.9-25
		c-2.4-1.4-6.3-1.3-8.6,0L59.3,101C56.9,102.4,55,105.8,55,108.5z M56,109c0-2.7,1.9-6,4.2-7.3l42.7-25c2.3-1.4,6.1-1.4,8.4,0
		l43,24.5c2.3,1.3,4.3,4.6,4.3,7.3l0.3,49.5c0,2.7-1.9,6-4.2,7.3l-42.7,25c-2.3,1.4-6.1,1.4-8.4,0l-43-24.5c-2.3-1.3-4.3-4.6-4.3-7.3
		L56,109z"/>
	<!-- text: JS  -->
	<g id="JS" filter="url(#js-dropshadow)">
		<path fill="#FFFFFF" d="M89.3,156c-3.3,0-6-0.6-8.3-1.9c-2.2-1.2-4-2.7-5.5-4.4l5.8-6.5c1.2,1.3,2.4,2.4,3.6,3.1
			c1.2,0.7,2.6,1.1,4,1.1c1.8,0,3.1-0.5,4.1-1.6c1-1.1,1.5-2.9,1.5-5.3v-27.1h9.5v27.5c0,2.5-0.3,4.7-1,6.5c-0.7,1.8-1.7,3.4-2.9,4.7
			c-1.3,1.3-2.9,2.3-4.7,2.9C93.7,155.7,91.6,156,89.3,156z"/>
		<path fill="#FFFFFF" d="M128.6,156c-3.2,0-6.3-0.6-9.4-1.6c-3.1-1.1-5.9-2.8-8.4-5.1l5.5-6.5c1.9,1.6,3.9,2.8,5.9,3.7
			c2,0.9,4.2,1.4,6.6,1.4c1.9,0,3.4-0.3,4.5-1c1.1-0.7,1.6-1.7,1.6-2.9v-0.1c0-0.6-0.1-1.1-0.3-1.6c-0.2-0.5-0.6-0.9-1.3-1.3
			c-0.6-0.4-1.5-0.8-2.6-1.2c-1.1-0.4-2.5-0.8-4.3-1.3c-2.1-0.5-4.1-1.1-5.8-1.7c-1.7-0.6-3.2-1.4-4.4-2.4c-1.2-0.9-2.1-2.1-2.8-3.5
			c-0.7-1.4-1-3.1-1-5.2v-0.1c0-1.9,0.4-3.6,1.1-5.2c0.7-1.5,1.7-2.9,3-4c1.3-1.1,2.8-2,4.6-2.6c1.8-0.6,3.8-0.9,5.9-0.9
			c3.1,0,5.9,0.5,8.5,1.4c2.6,0.9,5,2.2,7.1,4l-4.8,7c-1.9-1.3-3.7-2.3-5.5-3c-1.8-0.7-3.6-1.1-5.4-1.1c-1.8,0-3.1,0.4-4,1
			c-0.9,0.7-1.4,1.6-1.4,2.6v0.1c0,0.7,0.1,1.3,0.4,1.8c0.3,0.5,0.7,1,1.4,1.4c0.7,0.4,1.6,0.8,2.8,1.1s2.7,0.8,4.5,1.3
			c2.1,0.6,4,1.2,5.7,1.9c1.7,0.7,3.1,1.5,4.2,2.5c1.1,1,2,2.1,2.6,3.5c0.6,1.3,0.9,2.9,0.9,4.7v0.1c0,2.1-0.4,3.9-1.1,5.5
			c-0.8,1.6-1.8,3-3.2,4.1c-1.4,1.1-3,1.9-4.8,2.5C133,155.7,130.9,156,128.6,156z"/>
	</g>
	<!-- text: CHTI -->
	<g id="CHTI">
		<path fill="#575747" d="M53.2,52.9c-2.6-2.6-3.9-5.8-3.9-9.7c0-3.8,1.3-7,3.9-9.6c2.6-2.6,5.8-3.9,9.6-3.9c3.9,0,7.2,1.2,10,3.6
			l-3.6,4c-1.8-1.4-4-2.2-6.3-2.2c-2.4,0-4.4,0.8-5.9,2.3c-1.5,1.5-2.2,3.4-2.2,5.8c0,2.5,0.8,4.5,2.3,6c1.5,1.5,3.5,2.2,5.9,2.2
			c2.4,0,4.5-0.7,6.3-2.1l3.6,4c-2.8,2.4-6.1,3.6-10,3.6C59,56.8,55.8,55.5,53.2,52.9z"/>
		<path fill="#575747" d="M78.6,56.8V29.7H84v10.8h12.6V29.7h5.4v27.1l-5.4,0V45.6H84v11.2H78.6z"/>
		<path fill="#575747" d="M110.3,33.2h-0.2c-0.8,0-1.5-0.2-2-0.7c-0.5-0.5-0.7-1.1-0.7-1.8s0.2-1.3,0.7-1.8c0.5-0.5,1.1-0.7,2-0.7
			c0.9,0,1.5,0.2,2,0.7c0.5,0.5,0.7,1.1,0.7,1.8v0.1c0,2.9-1.2,5-3.6,6.2l-0.9-1.6C109.3,35,109.9,34.2,110.3,33.2z"/>
		<path fill="#575747" d="M141.4,29.7v5.1h-9v22h-5.4v-22h-9v-5.1H141.4z"/>
		<path fill="#575747" d="M145.4,29.7h5.4v27.1h-5.4V29.7z"/>
	</g>
</g>
 
</svg>

