<svg viewBox="0 0 165 196" xmlns="http://www.w3.org/2000/svg"><defs><radialGradient id="b" cx="51.429%" cy="16.547%" r="78.763%"><stop stop-color="#faeb0f" offset="0%"/><stop stop-color="#f1c309" offset="100%"/></radialGradient><linearGradient id="d" x1="50%" y1="16.5%" x2="50%" y2="100%"><stop stop-color="#fff" offset="0%"/><stop stop-color="#f1c309" offset="100%"/></linearGradient><linearGradient id="c" x1="68%" x2="68%" y2="100%"><stop stop-color="#fff" stop-opacity=".7" offset="0%"/><stop stop-color="#fff" stop-opacity="0" offset="100%"/></linearGradient><filter id="e" x="-100%" y="-100%" width="300%" height="300%"><feOffset result="out" in="SourceGraphic" dy="2"/><feColorMatrix result="out" in="out" values="0 0 0 0.549 0 0 0 0 0.4118 0 0 0 0 0 0 0 0 0 0.4 0"/><feGaussianBlur result="out" in="out" stdDeviation="1"/><feBlend in="SourceGraphic" in2="out" result="js-dropshadow"/></filter><filter id="a" x="-100%" y="-100%" width="300%" height="300%"><feGaussianBlur in="SourceGraphic" stdDeviation="5" result="Flou_gaussien___1"/></filter></defs><g><path d="M159.661 57.484c2.396-1.372 4.339-.246 4.339 2.516v83.333c0 2.761-1.943 6.112-4.339 7.484l-72.822 41.698c-2.396 1.372-6.282 1.372-8.678 0l-72.822-41.698c-2.396-1.372-4.339-4.723-4.339-7.484v-83.333c0-2.761 1.943-3.888 4.339-2.516l72.822 41.698c2.396 1.372 6.282 1.372 8.678 0l72.822-41.698z" stroke="#acac9d" fill="#dcdccb"/><path d="M83.5 88.565l46.725 18.468v36.935l-46.725 18.468-46.725-18.468v-36.935l46.725-18.468z" fill="#8a8a7b" filter="url(#a)"/><path d="M78.168 43.496c2.393-1.379 6.272-1.379 8.665 0l43.835 25.258c2.393 1.379 4.332 4.735 4.332 7.496v50.5c0 2.762-1.94 6.118-4.332 7.496l-43.835 25.258c-2.393 1.379-6.272 1.379-8.665 0l-43.835-25.258c-2.393-1.379-4.332-4.735-4.332-7.496v-50.5c0-2.761 1.94-6.118 4.332-7.496l43.835-25.258z" stroke="#c5a807" stroke-width="2" fill="url(#b)"/><path opacity=".7" d="M86.832 43.496c-2.393-1.379-6.272-1.378-8.665 0l-43.835 25.258c-2.393 1.379-4.332 4.735-4.332 7.496v50.5c0 2.762 1.94 6.118 4.332 7.496l9.518 5.484c14.82-33.754 40.616-61.599 72.87-79.015l-29.888-17.219z" fill="url(#c)"/><path d="M31.5 77.115c0-2.761 1.94-6.118 4.332-7.496l42.335-24.393c2.393-1.379 6.272-1.379 8.665 0l42.335 24.393c2.393 1.379 4.332 4.735 4.332 7.496v48.77c0 2.761-1.94 6.118-4.332 7.496l-42.335 24.393c-2.393 1.379-6.272 1.379-8.665 0l-42.335-24.393c-2.393-1.379-4.332-4.735-4.332-7.496v-48.77zm55.332-33.619c-2.393-1.379-6.272-1.379-8.665 0l-43.835 25.258c-2.393 1.379-4.332 4.735-4.332 7.496v50.5c0 2.762 1.94 6.118 4.332 7.496l43.835 25.258c2.393 1.379 6.272 1.379 8.665 0l43.835-25.258c2.393-1.379 4.332-4.735 4.332-7.496v-50.5c0-2.761-1.94-6.118-4.332-7.496l-43.835-25.258z" fill="url(#d)"/><g filter="url(#e)" fill="#fff"><path d="M68.297 121.922c1.844-.719 3.438-1.797 4.766-3.203 1.328-1.406 2.313-3.078 2.969-5.016.641-1.938.969-4.234.969-6.891v-26.813h-11v27.016c0 2-.438 3.5-1.297 4.5s-2.031 1.484-3.5 1.484c-1.281 0-2.438-.328-3.453-1.016-1.031-.672-2.063-1.625-3.094-2.875l-7.5 6.984c.719.984 1.547 1.891 2.516 2.734.969.844 2.047 1.563 3.25 2.188 1.188.625 2.531 1.109 4.016 1.469 1.469.328 3.141.516 4.984.516 2.391 0 4.516-.375 6.375-1.078zM107.781 122.063c2.109-.625 3.922-1.531 5.438-2.719 1.5-1.188 2.672-2.625 3.516-4.313.844-1.688 1.266-3.625 1.266-5.797v-.125c0-1.969-.359-3.656-1.047-5.094-.688-1.438-1.688-2.656-2.984-3.656-1.313-1-2.891-1.859-4.75-2.563-1.875-.703-3.953-1.328-6.25-1.859-1.391-.313-2.531-.609-3.438-.922-.906-.297-1.609-.594-2.125-.906-.516-.297-.875-.625-1.094-1-.219-.359-.313-.781-.313-1.266v-.125c0-.766.344-1.406 1.047-1.938.688-.516 1.75-.781 3.156-.781 1.875 0 3.813.359 5.844 1.063 2.016.703 3.984 1.734 5.906 3.078l5.828-8.359c-2.281-1.906-4.844-3.344-7.656-4.313-2.813-.969-6.031-1.469-9.625-1.469-2.531 0-4.813.344-6.844 1-2.031.672-3.781 1.609-5.219 2.813-1.453 1.203-2.563 2.625-3.313 4.281-.75 1.656-1.125 3.469-1.125 5.438v.109c0 2.188.391 4 1.172 5.469.781 1.469 1.859 2.703 3.234 3.688 1.359 1 2.969 1.797 4.813 2.422 1.844.625 3.828 1.203 5.984 1.719 1.375.328 2.5.641 3.375.938.859.313 1.547.625 2.063.938.516.328.875.656 1.063 1 .188.344.297.734.297 1.172v.109c0 .938-.422 1.656-1.234 2.156-.813.5-2 .75-3.563.75-4.891 0-9.438-1.672-13.625-5.047l-6.469 7.844c2.594 2.406 5.578 4.203 8.953 5.406 3.375 1.188 6.953 1.797 10.719 1.797 2.563 0 4.891-.313 7-.938z"/></g><g fill="#575748"><path d="M-.065 27h6v-10h12.344v-5h-12.344v-6h14.016v-5h-20.016v26zM31.748 14v-8h5.578c1.391 0 2.469.344 3.25 1 .781.656 1.172 1.656 1.172 2.984v.078c0 1.188-.375 2.141-1.109 2.859-.75.719-1.813 1.078-3.203 1.078h-5.687zm-6 13h6v-8h4.469l5.531 8h6.328l-6.328-9.281c1.781-.625 3.234-1.594 4.344-2.922 1.094-1.313 1.656-3.031 1.656-5.141v-.078c0-2.469-.766-4.453-2.266-5.937-1.781-1.75-4.344-2.641-7.672-2.641h-12.062v26zM62.655 16l3.453-8.391 3.438 8.391h-6.891zm-10.203 11h5.813l2.359-6h10.953l2.375 6h5.953l-11.109-26h-5.25l-11.094 26zM85.374 27h6v-16.531l12.266 16.531h4.734v-26h-6v16.016l-11.859-16.016h-5.141v26zM131.906 26.703c1.016-.188 1.953-.484 2.797-.875.844-.391 1.625-.859 2.344-1.391.719-.531 1.406-1.156 2.078-1.844l-3.625-3.625c-1.016.938-2.031 1.688-3.047 2.219-1.031.547-2.281.813-3.766.813-1.109 0-2.125-.203-3.047-.625-.938-.422-1.719-1-2.375-1.734-.656-.719-1.156-1.578-1.531-2.547-.375-.969-.547-2-.547-3.094v-.078c0-1.078.172-2.094.547-3.063.375-.953.891-1.797 1.563-2.531.656-.719 1.453-1.297 2.375-1.703.922-.406 1.922-.625 3.016-.625 1.313 0 2.484.266 3.531.781 1.047.531 2.078 1.234 3.094 2.141l3.625-4.125c-.594-.563-1.234-1.078-1.922-1.547-.688-.469-1.438-.859-2.25-1.188-.813-.328-1.719-.594-2.719-.781-1-.188-2.109-.281-3.313-.281-2 0-3.828.344-5.484 1.031-1.656.688-3.078 1.609-4.266 2.797-1.188 1.188-2.125 2.578-2.797 4.141-.672 1.563-1 3.25-1 5.031v.078c0 1.797.328 3.484 1 5.063.672 1.578 1.609 2.953 2.797 4.109 1.188 1.156 2.609 2.078 4.234 2.75 1.625.672 3.391 1 5.297 1 1.25 0 2.375-.094 3.391-.297zM145 27h20.063v-5h-14.063v-6h12.219v-5h-12.219v-5h13.875v-5h-19.875v26z"/></g></g></svg>