<?xml version="1.0" encoding="UTF-8" standalone="no"?>
<svg xmlns:svg="http://www.w3.org/2000/svg" xmlns="http://www.w3.org/2000/svg" id="twitter" height="150" width="150"
   version="1.1">
   <path id="rect826"
      d="m 59.119301,47.495576 1.3e-4,11.580138 h -16.01172 c -1.385,0 -2.5,1.114999 -2.5,2.5 v 20.90039 c 0,1.385 1.115,2.5 2.5,2.5 h 16.01172 V 134.355 c 0,1.385 1.115,2.5 2.5,2.5 h 20.90039 c 1.385,0 2.5,-1.115 2.5,-2.5 V 84.976104 h 18.968749 c 1.385,0 2.5,-1.115 2.5,-2.5 v -20.90039 c 0,-1.385 -1.115,-2.5 -2.5,-2.5 H 85.019821 l -1.7e-4,-13.434047 c -0.0339,-2.842053 2.76504,-5.688909 6.10274,-5.857446 h 13.086639 c 1.385,0 2.5,-1.115 2.5,-2.5 V 18.38383 c 0,-1.385 -1.115,-2.5 -2.5,-2.5 H 88.762871 c -29.90818,0.892064 -29.64388,24.064769 -29.64357,31.611746 z"
      style="opacity:1;fill:#000000;fill-opacity:1;stroke:none;stroke-width:3.0999999;stroke-miterlimit:4;stroke-dasharray:none;stroke-dashoffset:0;stroke-opacity:1" />
</svg>
