<svg xmlns="http://www.w3.org/2000/svg" width="150" height="150"><path style="font-size:165.16976929px;font-style:normal;font-variant:normal;font-weight:400;font-stretch:normal;fill:#000;fill-opacity:1;stroke:none;font-family:Gentium Book Basic;-inkscape-font-specification:Gentium Book Basic" d="M88 59.63c0-2.854-.422-5.542-1.264-8.066-.843-2.579-2.108-4.829-3.794-6.75-1.686-1.92-3.767-3.428-6.243-4.526-2.476-1.097-5.347-1.646-8.614-1.646-1.317 0-2.74.357-4.267 1.07-1.528.658-2.95 1.674-4.268 3.045-1.317 1.317-2.423 2.99-3.319 5.02-.843 1.976-1.264 4.308-1.264 6.997 0 2.853.395 5.569 1.185 8.148.79 2.524 2.002 4.746 3.635 6.666 1.633 1.866 3.688 3.348 6.164 4.445 2.53 1.097 5.506 1.646 8.93 1.646 1.528 0 3.056-.33 4.584-.988 1.58-.658 3.003-1.646 4.268-2.963 1.264-1.371 2.291-3.045 3.082-5.02.79-2.03 1.185-4.39 1.185-7.078m-12.012 50.782a128.93 128.93 0 0 1-6.164-.906c-1.844-.33-3.61-.686-5.295-1.07-3.267 1.975-5.848 3.759-7.745 5.35-1.896 1.646-3.345 3.1-4.346 4.362-.949 1.317-1.555 2.47-1.818 3.457-.263 1.042-.395 2.003-.395 2.88 0 2.14.685 4.17 2.055 6.091 1.422 1.92 3.345 3.594 5.769 5.02 2.423 1.427 5.242 2.552 8.456 3.375 3.213.878 6.611 1.317 10.194 1.317 3.372 0 6.401-.466 9.088-1.4 2.74-.932 5.032-2.194 6.876-3.785a16.425 16.425 0 0 0 4.267-5.68c1.001-2.194 1.502-4.553 1.502-7.077a8.219 8.219 0 0 0-.949-3.869c-.632-1.207-1.791-2.332-3.477-3.374-1.633-.988-3.899-1.893-6.796-2.716-2.898-.768-6.639-1.427-11.222-1.976m25.447-54.156c0 4.225-.922 8.093-2.766 11.605a29.646 29.646 0 0 1-7.113 8.971c-2.95 2.47-6.348 4.417-10.194 5.844-3.846 1.372-7.771 2.058-11.775 2.057h-.475c-2.318 2.086-3.898 3.814-4.741 5.186-.79 1.371-1.186 2.222-1.186 2.551 0 .604.237 1.207.712 1.81.474.55 1.396 1.098 2.766 1.647 1.422.549 3.398 1.097 5.927 1.646 2.581.494 5.927 1.015 10.036 1.564 5.9.713 10.774 1.728 14.62 3.045 3.846 1.262 6.902 2.744 9.167 4.444 2.266 1.647 3.846 3.485 4.742 5.515a15.54 15.54 0 0 1 1.343 6.337c0 2.854-.553 5.624-1.66 8.313-1.106 2.689-2.633 5.185-4.583 7.49-1.95 2.36-4.24 4.5-6.875 6.42a46.034 46.034 0 0 1-8.377 4.938 50.282 50.282 0 0 1-9.404 3.21c-3.267.768-6.48 1.152-9.642 1.152-2.581 0-5.268-.192-8.06-.576a52.255 52.255 0 0 1-8.14-1.646 45.638 45.638 0 0 1-7.587-2.963c-2.37-1.153-4.478-2.58-6.322-4.28a19.144 19.144 0 0 1-4.267-5.68c-1.054-2.084-1.581-4.471-1.581-7.16 0-1.426.263-2.908.79-4.444.527-1.481 1.528-3.1 3.003-4.856 1.528-1.7 3.636-3.566 6.322-5.597 2.687-2.03 6.217-4.28 10.59-6.749-3.266-1.262-5.61-2.633-7.033-4.115-1.37-1.536-2.055-3.1-2.055-4.691 0-.494.158-1.152.474-1.976.369-.823 1.001-1.81 1.897-2.962.948-1.153 2.213-2.442 3.793-3.869 1.633-1.481 3.688-3.127 6.164-4.938-2.74-.823-5.242-1.948-7.507-3.375-2.266-1.481-4.215-3.237-5.848-5.267-1.58-2.085-2.819-4.417-3.715-6.996-.895-2.579-1.343-5.377-1.343-8.395 0-4.005.896-7.791 2.687-11.358 1.791-3.621 4.162-6.749 7.112-9.383 2.95-2.688 6.322-4.8 10.116-6.337C65.293 30.796 69.27 30 73.38 30c3.319 0 6.401.494 9.246 1.481 2.898.933 5.532 2.25 7.903 3.951 5.216-.603 9.562-1.454 13.04-2.551 3.53-1.098 6.4-2.058 8.613-2.881L114 32.634c-.58 1.426-1.212 2.88-1.897 4.362-.632 1.481-1.501 2.908-2.608 4.28-1.896.329-3.82.63-5.769.905-1.896.22-4.03.384-6.4.494a23.65 23.65 0 0 1 3.002 6.42 23.351 23.351 0 0 1 1.107 7.16"/></svg>