<?xml version="1.0" encoding="UTF-8" standalone="no"?>
<svg
   xmlns:dc="http://purl.org/dc/elements/1.1/"
   xmlns:cc="http://creativecommons.org/ns#"
   xmlns:rdf="http://www.w3.org/1999/02/22-rdf-syntax-ns#"
   xmlns:svg="http://www.w3.org/2000/svg"
   xmlns="http://www.w3.org/2000/svg"
   id="svg8"
   version="1.1"
   viewBox="0 0 39.687499 39.687501"
   height="150"
   width="150">
  <defs
     id="defs2" />
  <metadata
     id="metadata5">
    <rdf:RDF>
      <cc:Work
         rdf:about="">
        <dc:format>image/svg+xml</dc:format>
        <dc:type
           rdf:resource="http://purl.org/dc/dcmitype/StillImage" />
        <dc:title></dc:title>
      </cc:Work>
    </rdf:RDF>
  </metadata>
  <g
     transform="translate(0,-257.31248)"
     id="layer1">
    <path
       id="path826"
       d="m 32.558443,260.29729 c -2.835896,0.30075 -4.916086,3.10389 -7.395968,4.54371 -1.386647,1.02255 -2.773005,2.04569 -4.159835,3.06783 1.359702,0.95868 2.48314,2.78351 3.984916,3.28663 2.2791,-1.44586 4.290292,-3.68223 6.770698,-4.5471 1.4669,-0.0664 2.20325,2.10228 1.600377,3.60697 -1.075192,3.16134 -4.048627,3.93454 -6.08989,5.81168 -1.968473,1.33615 -3.806461,3.23229 -5.98081,3.96427 -1.240855,0.0535 -2.151767,-1.68163 -1.634703,-3.07972 -0.04012,-1.16893 -1.206597,-0.37372 -1.643091,-0.0619 -0.878274,0.76135 -2.220094,0.66316 -2.871979,1.78681 -0.188608,3.54767 2.092119,7.51691 5.129076,7.45737 2.759323,-0.17715 4.780128,-2.89184 7.146705,-4.31014 2.77757,-2.23272 5.944618,-3.83649 8.386445,-6.65219 2.783932,-3.81666 2.931141,-10.82979 -0.642583,-13.96438 -0.770384,-0.61032 -1.685982,-0.94176 -2.599358,-0.90977 z"
       style="opacity:1;fill:#000000;fill-opacity:1;stroke:none;stroke-width:0.82020825;stroke-miterlimit:4;stroke-dasharray:none;stroke-dashoffset:0;stroke-opacity:1" />
    <path
       id="path828"
       d="m 19.415139,268.96717 c -2.720497,0.48252 -4.75311,3.0868 -7.146034,4.54403 -2.6732517,2.13973 -5.7263976,3.67806 -8.0582868,6.4104 -2.7729257,3.81562 -2.9081254,10.73123 0.5873633,13.93688 1.9996327,1.65772 4.6318838,0.84817 6.3971885,-0.9151 2.605962,-1.92188 5.211623,-3.84439 7.817771,-5.76587 -1.368478,-0.96965 -2.486836,-2.78877 -3.98492,-3.28661 -2.248883,1.43893 -4.24336,3.59689 -6.6684806,4.54425 -1.5095955,0.16564 -2.3405492,-2.05731 -1.7003038,-3.61272 1.0596144,-3.13064 4.0296854,-3.93106 6.0559054,-5.78077 1.938552,-1.32708 3.751275,-3.11309 5.855366,-3.97705 1.246882,-0.17919 2.322929,1.48869 1.790317,2.95482 -0.0087,1.20166 1.20608,0.54663 1.657584,0.18877 0.866994,-0.85295 2.477994,-0.59965 2.895625,-2.06235 -0.0305,-3.61602 -2.352994,-7.56398 -5.499095,-7.17868 z"
       style="opacity:1;fill:#000000;fill-opacity:1;stroke:none;stroke-width:0.82020825;stroke-miterlimit:4;stroke-dasharray:none;stroke-dashoffset:0;stroke-opacity:1" />
  </g>
</svg>
