<?xml version="1.0" encoding="UTF-8" standalone="no"?>
<svg xmlns:svg="http://www.w3.org/2000/svg" xmlns="http://www.w3.org/2000/svg" width="150" height="150"
   viewBox="0 0 39.687499 39.687501" version="1.1" id="mail">

   <path id="rect10"
      d="m 4.4452066,7.8253605 c -1.3912591,0 -2.5114745,1.0449134 -2.5114745,2.3430075 v 19.530073 c 0,1.298096 1.1202154,2.34301 2.5114745,2.34301 H 35.242293 c 1.391259,0 2.511475,-1.044914 2.511475,-2.34301 V 10.168368 c 0,-1.2980941 -1.120216,-2.3430075 -2.511475,-2.3430075 z M 35.590591,9.2469786 c 0.689062,0.02597 1.312463,0.6585017 0.709001,1.4019804 -3.807269,3.248567 -7.886232,6.216159 -11.794111,9.360669 3.801625,2.982515 7.603704,5.964448 11.405504,8.946742 1.023538,0.481078 0.643438,2.223383 -0.568957,1.745628 C 31.611839,28.182829 28.189322,25.14252 24.575244,22.427051 23.352998,20.6526 22.129788,21.629142 20.907767,22.832194 19.335202,24.015792 17.92545,21.951529 16.73748,21.191468 12.830523,24.25538 8.9244127,27.320377 5.0177816,30.384704 4.277224,31.299104 2.5596187,30.451567 3.4375164,29.369781 7.2447557,26.121346 11.32378,23.154004 15.231628,20.009628 11.638153,17.190275 8.0445209,14.371418 4.4508912,11.552263 3.5691646,11.28829 2.5299456,9.4970773 3.9325764,9.2728166 4.1307829,9.2552466 4.331331,9.2882966 4.5180705,9.3549766 9.7305139,13.179191 14.735755,17.333459 19.868554,21.28448 24.818815,17.401002 29.769101,13.517551 34.719328,9.6340293 34.95064,9.3484646 35.277382,9.2351706 35.590591,9.2469736 Z"
      style="opacity:1;fill:#000000;fill-opacity:1;stroke:none;stroke-width:0.82020831;stroke-miterlimit:4;stroke-dasharray:none;stroke-dashoffset:0;stroke-opacity:1" />
</svg>
