<?xml version="1.0" encoding="UTF-8" standalone="no"?>
<svg xmlns:svg="http://www.w3.org/2000/svg" xmlns="http://www.w3.org/2000/svg" id="twitter" height="150" width="150"
   version="1.1">
   <path style="fill:#050505;fill-opacity:1;stroke:none" id="icon"
      d="m 30,25.13301 v 80.90438 C 30.82021,114.61804 29.56606,132.49707 54.31667,136 h 59.6863 c 5.04305,-4.74459 5.12775,-9.48817 5.15805,-14.23277 -0.48061,-6.45163 -1.2181,-12.6933 -5.89495,-15.73186 L 64.63275,105.28835 C 56.73566,103.69639 53.79644,99.86336 53.57976,94.80079 V 74.57468 l 60.51873,0.61579 c 3.56749,-4.74156 6.49142,-8.37572 5.79941,-14.84957 -0.37237,-9.85259 -2.99503,-12.83967 -5.89493,-14.98281 L 55.05355,44.61108 54.31675,25.13401 C 52.29781,21.57153 51.51267,17.25597 45.47434,16.14452 37.87803,15.17541 33.34029,19.18105 30.0001,25.13401 L 30,25.13201 Z" />
</svg>
